<?xml version="1.0" standalone="no"?>
<!DOCTYPE svg PUBLIC "-//W3C//DTD SVG 20010904//EN"
 "http://www.w3.org/TR/2001/REC-SVG-20010904/DTD/svg10.dtd">
<svg version="1.0" xmlns="http://www.w3.org/2000/svg"
 width="512.000000pt" height="512.000000pt" viewBox="0 0 512.000000 512.000000"
 preserveAspectRatio="xMidYMid meet">

<g transform="translate(0.000000,512.000000) scale(0.100000,-0.100000)"
fill="#000000" stroke="none">
<path d="M3384 3940 c-33 -13 -64 -59 -64 -95 0 -22 22 -67 74 -151 41 -65 73
-120 73 -121 -1 0 -55 14 -119 32 -173 50 -316 69 -473 62 -205 -10 -336 -52
-464 -152 -220 -170 -368 -492 -412 -897 -15 -133 -6 -492 15 -618 l16 -95
-46 -43 c-129 -119 -363 -274 -549 -363 -266 -129 -503 -178 -750 -157 -244
20 -404 114 -480 280 -70 153 -45 282 76 398 111 106 265 184 576 291 96 33
198 71 227 86 247 124 387 312 374 502 -8 110 -50 168 -178 251 -81 51 -421
223 -635 320 -394 179 -406 183 -444 134 -27 -34 -26 -59 3 -136 60 -162 148
-298 233 -363 84 -64 121 -72 378 -78 294 -7 416 -28 460 -77 27 -30 27 -120
1 -173 -43 -87 -152 -181 -284 -243 -30 -14 -134 -53 -231 -86 -484 -163 -712
-345 -752 -598 -9 -58 -9 -91 1 -145 71 -402 479 -604 1030 -509 319 55 672
231 996 495 l87 71 21 -27 c19 -24 36 -29 188 -55 175 -30 192 -35 221 -68 36
-40 32 -78 -22 -215 -28 -70 -51 -139 -51 -152 0 -29 29 -62 62 -70 13 -3 508
-4 1101 -3 l1079 3 19 24 c26 32 25 82 -3 108 -13 12 -134 76 -270 144 l-247
122 -98 4 c-89 3 -161 -7 -745 -105 -357 -60 -648 -106 -648 -103 0 13 103 94
177 140 43 26 128 74 188 106 191 101 302 179 411 289 112 112 165 200 186
311 l11 60 86 61 85 61 68 -58 c38 -31 80 -60 94 -63 27 -7 48 1 288 109 82
36 157 67 166 68 10 0 60 -16 112 -37 88 -35 97 -37 124 -25 32 16 93 115 101
165 4 27 -3 40 -65 110 -39 43 -68 82 -66 86 3 5 36 8 73 8 116 0 127 5 227
102 51 49 100 105 109 125 16 33 16 39 2 68 -22 46 -377 406 -440 448 -29 18
-71 39 -93 45 -59 17 -191 15 -278 -4 l-74 -17 -388 212 c-214 116 -397 211
-409 210 -11 0 -30 -4 -41 -9z m539 -410 c215 -117 397 -210 411 -210 33 0 61
40 52 75 -6 25 -6 25 66 25 51 0 83 -6 112 -20 41 -20 386 -356 386 -377 0 -5
-27 -35 -59 -66 l-60 -57 -76 0 c-69 0 -84 -4 -144 -35 -36 -19 -86 -42 -111
-50 -67 -24 -192 -29 -280 -12 -79 16 -102 12 -119 -22 -6 -10 -7 -28 -4 -40
15 -59 195 -87 363 -57 l75 14 44 -43 c37 -37 42 -45 32 -63 -11 -20 -13 -20
-57 -5 -26 9 -60 13 -79 10 -32 -5 -155 -57 -338 -141 l-78 -36 -77 77 c-43
43 -92 100 -110 126 -29 43 -36 48 -64 45 -23 -2 -37 -11 -48 -30 -14 -26 -13
-31 12 -75 l26 -48 -55 -40 c-30 -22 -58 -39 -62 -38 -3 1 -12 31 -19 65 -18
91 -75 206 -107 218 -31 12 -59 0 -75 -31 -9 -16 -5 -32 19 -82 81 -167 81
-370 0 -498 -43 -67 -172 -189 -269 -252 -47 -30 -146 -88 -220 -128 -74 -40
-169 -94 -210 -120 l-75 -48 -15 48 c-26 79 -84 144 -153 170 -31 12 -312 61
-349 61 -24 0 -26 5 -41 103 -52 322 -51 615 3 857 74 332 231 574 433 668 92
43 173 57 337 57 207 0 391 -44 611 -147 86 -39 92 -45 133 -108 72 -110 114
-130 284 -130 128 0 152 10 152 61 0 48 -29 59 -157 59 -102 0 -114 2 -137 23
-21 19 -301 457 -292 457 2 0 177 -94 389 -210z m-3258 -225 c105 -48 192 -89
193 -90 2 -2 1 -13 -3 -24 -6 -20 -14 -21 -126 -21 -142 0 -166 8 -237 79 -43
43 -122 162 -122 184 0 7 21 -2 295 -128z m3583 -1924 c39 -19 72 -38 72 -42
0 -5 -165 -9 -367 -9 -201 0 -363 3 -360 7 4 3 105 23 225 44 270 47 328 47
430 0z"/>
<path d="M4504 3256 c-43 -19 -64 -53 -64 -102 0 -52 28 -90 80 -105 73 -22
140 28 140 105 0 50 -21 83 -66 102 -41 17 -50 17 -90 0z"/>
</g>
</svg>
