<svg id="svg" version="1.1" xmlns="http://www.w3.org/2000/svg" xmlns:xlink="http://www.w3.org/1999/xlink" width="400" height="400" viewBox="0, 0, 400,400"><g id="svgg"><path id="path0" d="M276.800 108.839 C 276.800 109.080,277.790 110.796,279.000 112.652 C 280.210 114.509,281.200 116.113,281.200 116.218 C 281.200 116.322,282.162 117.891,283.338 119.704 C 285.824 123.535,288.058 127.087,293.211 135.400 C 299.640 145.772,298.682 145.195,309.492 145.198 C 320.182 145.201,322.000 145.902,322.000 150.024 C 322.000 154.335,320.418 154.904,308.937 154.720 C 295.745 154.509,292.803 152.998,287.004 143.458 L 284.608 139.517 280.004 137.298 C 277.472 136.077,275.040 134.944,274.600 134.779 C 274.160 134.615,272.947 134.102,271.904 133.640 C 270.862 133.178,269.824 132.800,269.599 132.800 C 269.374 132.800,268.877 132.641,268.495 132.447 C 249.927 123.001,212.781 121.869,200.823 130.384 C 200.192 130.833,199.520 131.200,199.328 131.200 C 197.441 131.200,187.320 141.318,183.323 147.200 C 179.482 152.852,174.247 163.880,172.784 169.400 C 172.609 170.060,172.084 171.860,171.618 173.400 C 171.151 174.940,170.578 177.100,170.345 178.200 C 170.111 179.300,169.757 180.920,169.559 181.800 C 165.740 198.738,165.413 224.985,168.774 244.700 C 169.008 246.075,169.392 248.325,169.626 249.700 C 169.861 251.075,170.151 253.023,170.270 254.028 L 170.488 255.856 174.144 256.284 C 186.368 257.712,198.586 260.239,202.008 262.047 C 207.146 264.762,212.400 272.112,212.400 276.586 C 212.400 278.199,212.813 278.056,218.406 274.505 C 224.238 270.801,225.251 270.199,229.200 268.093 C 230.630 267.331,232.610 266.256,233.600 265.704 C 234.590 265.153,237.290 263.703,239.600 262.482 C 255.795 253.924,268.098 243.860,273.775 234.528 C 280.043 224.225,279.656 208.822,272.786 195.263 C 270.869 191.477,270.939 189.692,273.075 188.013 C 276.351 185.436,279.268 186.970,282.007 192.711 C 284.574 198.093,285.513 200.721,286.395 205.000 C 287.517 210.442,287.237 210.366,292.326 206.616 C 296.952 203.208,296.899 203.330,294.959 200.450 C 291.688 195.593,292.904 191.446,297.600 191.446 C 300.045 191.446,300.794 192.073,303.998 196.800 C 307.795 202.403,315.840 210.400,317.679 210.400 C 318.219 210.400,319.839 209.689,328.600 205.604 C 329.920 204.989,332.035 204.016,333.300 203.442 C 334.565 202.869,336.548 201.964,337.707 201.431 C 347.696 196.836,350.786 196.219,355.805 197.817 L 359.000 198.834 359.900 197.795 C 361.170 196.328,361.140 196.258,357.731 192.754 C 354.251 189.178,354.542 189.255,348.964 190.447 C 338.129 192.764,322.530 190.697,320.389 186.662 C 318.076 182.302,321.852 179.106,327.616 180.545 C 335.045 182.399,346.895 182.145,351.800 180.026 C 352.240 179.836,353.230 179.452,354.000 179.173 C 354.770 178.894,357.351 177.585,359.735 176.264 C 364.784 173.465,367.313 172.837,373.607 172.815 L 377.813 172.800 382.397 168.203 L 386.982 163.605 384.574 161.103 C 383.249 159.726,380.463 156.803,378.383 154.606 C 359.682 134.862,356.729 132.800,347.159 132.800 C 342.445 132.800,342.517 132.755,342.723 135.606 C 342.888 137.891,342.839 138.041,341.488 139.392 C 338.877 142.003,338.486 141.879,323.600 133.692 C 322.610 133.147,316.760 129.957,310.600 126.602 C 304.440 123.247,298.590 120.054,297.600 119.506 C 296.610 118.959,294.810 117.971,293.600 117.311 C 292.390 116.651,290.410 115.570,289.200 114.908 C 287.990 114.247,285.740 113.028,284.200 112.200 C 282.660 111.372,280.478 110.179,279.351 109.547 C 277.084 108.277,276.800 108.199,276.800 108.839 M29.162 132.501 C 29.795 134.166,34.448 141.741,35.750 143.227 C 36.437 144.012,37.360 145.102,37.800 145.649 C 38.928 147.053,43.023 150.285,44.533 150.962 C 47.187 152.154,48.852 152.321,57.373 152.255 L 66.146 152.187 66.628 151.008 C 67.332 149.287,66.997 148.864,63.742 147.360 C 62.124 146.612,59.405 145.353,57.700 144.563 C 55.995 143.773,52.620 142.220,50.200 141.113 C 45.303 138.871,42.073 137.388,38.200 135.600 C 28.534 131.139,28.661 131.182,29.162 132.501 M358.027 145.041 C 367.806 147.926,365.760 162.200,355.569 162.200 C 345.026 162.200,343.225 147.869,353.400 144.939 C 355.571 144.314,355.563 144.314,358.027 145.041 M314.200 289.614 C 310.873 290.297,283.871 294.800,283.101 294.800 C 282.910 294.800,282.864 294.980,283.000 295.200 C 283.306 295.695,336.654 295.759,336.960 295.265 C 337.240 294.811,328.329 290.521,325.594 289.793 C 323.236 289.166,316.871 289.066,314.200 289.614 " stroke="none" fill="#ebdbab" fill-rule="evenodd"></path><path id="path1" d="M263.600 91.600 C 263.600 91.820,263.328 92.000,262.996 92.000 C 262.280 92.000,260.000 94.088,260.000 94.743 C 260.000 94.994,259.820 95.200,259.600 95.200 C 259.380 95.200,259.200 95.740,259.200 96.400 C 259.200 97.060,259.020 97.600,258.800 97.600 C 258.580 97.600,258.400 98.590,258.400 99.800 C 258.400 101.010,258.580 102.000,258.800 102.000 C 259.020 102.000,259.200 102.343,259.200 102.763 C 259.200 103.695,260.998 107.232,262.040 108.351 C 262.458 108.799,262.800 109.444,262.800 109.783 C 262.800 110.122,262.980 110.400,263.200 110.400 C 263.420 110.400,263.600 110.636,263.600 110.925 C 263.600 111.213,263.960 111.836,264.400 112.308 C 264.840 112.780,265.200 113.362,265.200 113.600 C 265.200 113.838,265.560 114.420,266.000 114.892 C 266.440 115.364,266.800 115.987,266.800 116.275 C 266.800 116.564,266.959 116.800,267.153 116.800 C 267.348 116.800,267.618 117.115,267.754 117.500 C 267.889 117.885,268.105 118.425,268.234 118.700 C 268.380 119.015,268.158 119.200,267.633 119.200 C 267.175 119.200,266.800 119.020,266.800 118.800 C 266.800 118.580,266.260 118.400,265.600 118.400 C 264.940 118.400,264.400 118.220,264.400 118.000 C 264.400 117.780,263.680 117.600,262.800 117.600 C 261.920 117.600,261.200 117.420,261.200 117.200 C 261.200 116.980,260.660 116.800,260.000 116.800 C 259.340 116.800,258.800 116.620,258.800 116.400 C 258.800 116.180,258.181 116.000,257.424 116.000 C 256.667 116.000,255.936 115.820,255.800 115.600 C 255.664 115.380,254.753 115.200,253.776 115.200 C 252.799 115.200,252.000 115.020,252.000 114.800 C 252.000 114.580,251.201 114.400,250.224 114.400 C 249.247 114.400,248.336 114.220,248.200 114.000 C 248.064 113.780,246.883 113.600,245.576 113.600 C 244.259 113.600,243.200 113.422,243.200 113.200 C 243.200 112.962,241.693 112.800,239.480 112.800 C 237.422 112.800,235.573 112.613,235.341 112.381 C 234.323 111.363,211.858 112.871,210.620 114.041 C 210.411 114.238,209.657 114.400,208.944 114.400 C 208.231 114.400,207.536 114.580,207.400 114.800 C 207.264 115.020,206.544 115.200,205.800 115.200 C 205.056 115.200,204.336 115.380,204.200 115.600 C 204.064 115.820,203.513 116.000,202.976 116.000 C 202.439 116.000,202.000 116.180,202.000 116.400 C 202.000 116.620,201.550 116.800,201.000 116.800 C 200.450 116.800,200.000 116.980,200.000 117.200 C 200.000 117.420,199.550 117.600,199.000 117.600 C 198.450 117.600,198.000 117.780,198.000 118.000 C 198.000 118.220,197.640 118.400,197.200 118.400 C 196.760 118.400,196.400 118.536,196.400 118.702 C 196.400 118.869,195.815 119.260,195.100 119.572 C 194.385 119.884,193.509 120.468,193.153 120.870 C 192.797 121.271,192.252 121.600,191.941 121.600 C 191.631 121.600,191.117 121.960,190.800 122.400 C 190.483 122.840,189.975 123.200,189.672 123.200 C 189.369 123.200,188.617 123.740,188.000 124.400 C 187.383 125.060,186.658 125.600,186.388 125.600 C 185.834 125.600,178.922 132.484,177.999 133.955 C 177.670 134.481,176.995 135.327,176.500 135.837 C 176.005 136.347,175.600 136.953,175.600 137.185 C 175.600 137.417,175.060 138.172,174.400 138.863 C 173.740 139.554,173.200 140.362,173.200 140.659 C 173.200 140.957,173.020 141.200,172.800 141.200 C 172.580 141.200,172.400 141.520,172.400 141.912 C 172.400 142.303,172.040 142.883,171.600 143.200 C 171.160 143.517,170.800 143.992,170.800 144.255 C 170.800 144.518,170.662 144.793,170.494 144.867 C 170.085 145.045,165.194 154.863,165.198 155.500 C 165.199 155.775,165.020 156.000,164.800 156.000 C 164.580 156.000,164.400 156.439,164.400 156.976 C 164.400 157.513,164.220 158.064,164.000 158.200 C 163.780 158.336,163.600 158.797,163.600 159.224 C 163.600 159.651,163.420 160.000,163.200 160.000 C 162.980 160.000,162.800 160.362,162.800 160.805 C 162.800 161.248,162.620 161.968,162.400 162.405 C 162.180 162.842,161.820 163.558,161.600 163.995 C 161.380 164.432,161.200 165.231,161.200 165.771 C 161.200 166.311,161.033 166.856,160.828 166.983 C 160.623 167.109,160.333 168.200,160.182 169.406 C 160.031 170.613,159.749 171.600,159.554 171.600 C 159.359 171.600,159.200 172.320,159.200 173.200 C 159.200 174.080,159.020 174.800,158.800 174.800 C 158.580 174.800,158.400 175.599,158.400 176.576 C 158.400 177.553,158.220 178.464,158.000 178.600 C 157.780 178.736,157.600 179.456,157.600 180.200 C 157.600 180.944,157.420 181.664,157.200 181.800 C 156.980 181.936,156.800 183.207,156.800 184.624 C 156.800 186.075,156.625 187.200,156.400 187.200 C 156.178 187.200,156.000 188.259,156.000 189.576 C 156.000 190.883,155.820 192.064,155.600 192.200 C 155.375 192.339,155.200 194.263,155.200 196.600 C 155.200 198.937,155.025 200.861,154.800 201.000 C 154.546 201.157,154.400 206.130,154.400 214.600 C 154.400 223.070,154.546 228.043,154.800 228.200 C 155.021 228.336,155.200 230.130,155.200 232.200 C 155.200 234.270,155.379 236.064,155.600 236.200 C 155.820 236.336,156.000 237.787,156.000 239.424 C 156.000 241.141,156.169 242.400,156.400 242.400 C 156.629 242.400,156.800 243.600,156.800 245.200 C 156.800 246.800,156.971 248.000,157.200 248.000 C 157.420 248.000,157.600 248.644,157.600 249.431 C 157.600 250.826,153.121 256.000,151.914 256.000 C 151.698 256.000,151.017 256.540,150.400 257.200 C 149.783 257.860,149.081 258.400,148.840 258.400 C 148.598 258.400,148.400 258.580,148.400 258.800 C 148.400 259.020,148.208 259.200,147.973 259.200 C 147.739 259.200,146.884 259.828,146.073 260.597 C 145.263 261.365,144.415 261.995,144.188 261.997 C 143.962 261.998,143.517 262.360,143.200 262.800 C 142.883 263.240,142.420 263.600,142.171 263.600 C 141.922 263.600,141.154 264.140,140.463 264.800 C 139.772 265.460,138.975 266.000,138.692 266.000 C 138.409 266.000,137.917 266.360,137.600 266.800 C 137.283 267.240,136.827 267.600,136.587 267.600 C 136.347 267.600,135.802 267.915,135.375 268.300 C 134.949 268.685,134.105 269.255,133.500 269.568 C 132.895 269.880,132.400 270.285,132.400 270.468 C 132.400 270.650,132.164 270.800,131.875 270.800 C 131.587 270.800,131.002 271.115,130.575 271.500 C 130.149 271.885,129.260 272.469,128.600 272.797 C 127.940 273.126,127.109 273.711,126.753 274.097 C 126.397 274.484,125.852 274.800,125.541 274.800 C 125.231 274.800,124.717 275.160,124.400 275.600 C 124.083 276.040,123.503 276.400,123.112 276.400 C 122.720 276.400,122.400 276.580,122.400 276.800 C 122.400 277.020,122.080 277.200,121.690 277.200 C 121.023 277.200,116.966 279.164,110.667 282.537 C 109.164 283.342,107.679 284.000,107.367 284.000 C 107.055 284.000,106.800 284.180,106.800 284.400 C 106.800 284.620,106.440 284.800,106.000 284.800 C 105.560 284.800,105.200 284.980,105.200 285.200 C 105.200 285.420,104.761 285.600,104.224 285.600 C 103.687 285.600,103.136 285.780,103.000 286.000 C 102.864 286.220,102.403 286.400,101.976 286.400 C 101.549 286.400,101.200 286.580,101.200 286.800 C 101.200 287.020,100.761 287.200,100.224 287.200 C 99.687 287.200,99.136 287.380,99.000 287.600 C 98.864 287.820,98.313 288.000,97.776 288.000 C 97.239 288.000,96.800 288.180,96.800 288.400 C 96.800 288.620,96.350 288.800,95.800 288.800 C 95.250 288.800,94.800 288.980,94.800 289.200 C 94.800 289.420,94.271 289.600,93.624 289.600 C 92.977 289.600,92.336 289.780,92.200 290.000 C 92.064 290.220,91.423 290.400,90.776 290.400 C 90.129 290.400,89.600 290.580,89.600 290.800 C 89.600 291.020,89.071 291.200,88.424 291.200 C 87.777 291.200,87.136 291.380,87.000 291.600 C 86.864 291.820,85.953 292.000,84.976 292.000 C 83.999 292.000,83.200 292.180,83.200 292.400 C 83.200 292.620,82.480 292.800,81.600 292.800 C 80.720 292.800,80.000 292.957,80.000 293.148 C 80.000 294.795,44.679 294.805,44.067 293.158 C 43.993 292.961,43.318 292.800,42.567 292.800 C 41.815 292.800,41.200 292.620,41.200 292.400 C 41.200 292.180,40.660 292.000,40.000 292.000 C 39.340 292.000,38.800 291.820,38.800 291.600 C 38.800 291.380,38.361 291.200,37.824 291.200 C 37.287 291.200,36.736 291.020,36.600 290.800 C 36.464 290.580,36.003 290.400,35.576 290.400 C 35.149 290.400,34.800 290.220,34.800 290.000 C 34.800 289.780,34.440 289.600,34.000 289.600 C 33.560 289.600,33.200 289.420,33.200 289.200 C 33.200 288.980,32.840 288.800,32.400 288.800 C 31.960 288.800,31.600 288.620,31.600 288.400 C 31.600 288.180,31.240 288.000,30.800 288.000 C 30.360 288.000,30.000 287.850,30.000 287.668 C 30.000 287.485,29.505 287.081,28.900 286.770 C 28.295 286.460,27.509 285.889,27.153 285.503 C 26.797 285.116,26.212 284.800,25.853 284.800 C 25.494 284.800,25.200 284.632,25.200 284.426 C 25.200 284.220,24.210 283.062,23.000 281.852 C 21.790 280.642,20.800 279.460,20.800 279.226 C 20.800 278.992,20.662 278.800,20.494 278.800 C 20.326 278.800,19.744 278.080,19.200 277.200 C 18.656 276.320,18.074 275.600,17.906 275.600 C 17.738 275.600,17.600 275.240,17.600 274.800 C 17.600 274.360,17.420 274.000,17.200 274.000 C 16.980 274.000,16.800 273.640,16.800 273.200 C 16.800 272.760,16.620 272.400,16.400 272.400 C 16.180 272.400,16.000 271.860,16.000 271.200 C 16.000 270.540,15.820 270.000,15.600 270.000 C 15.380 270.000,15.200 269.460,15.200 268.800 C 15.200 268.140,15.020 267.600,14.800 267.600 C 14.580 267.600,14.400 266.801,14.400 265.824 C 14.400 264.847,14.220 263.936,14.000 263.800 C 13.780 263.664,13.600 262.224,13.600 260.600 C 13.600 258.976,13.780 257.536,14.000 257.400 C 14.220 257.264,14.400 256.533,14.400 255.776 C 14.400 255.019,14.580 254.400,14.800 254.400 C 15.020 254.400,15.204 253.995,15.209 253.500 C 15.214 253.005,15.570 252.150,16.000 251.600 C 16.430 251.050,16.786 250.375,16.791 250.100 C 16.796 249.825,16.980 249.600,17.200 249.600 C 17.420 249.600,17.600 249.328,17.600 248.996 C 17.600 248.664,18.140 247.828,18.800 247.137 C 19.460 246.446,20.000 245.722,20.000 245.527 C 20.000 245.140,22.632 242.400,23.004 242.400 C 23.277 242.400,23.879 241.906,26.020 239.925 C 26.896 239.113,27.971 238.336,28.407 238.198 C 28.843 238.059,29.200 237.778,29.200 237.573 C 29.200 237.368,29.436 237.200,29.725 237.200 C 30.013 237.200,30.636 236.840,31.108 236.400 C 31.580 235.960,32.204 235.600,32.495 235.600 C 32.786 235.600,33.283 235.240,33.600 234.800 C 33.917 234.360,34.497 234.000,34.888 234.000 C 35.280 234.000,35.600 233.820,35.600 233.600 C 35.600 233.380,35.960 233.200,36.400 233.200 C 36.840 233.200,37.200 233.020,37.200 232.800 C 37.200 232.580,37.560 232.400,38.000 232.400 C 38.440 232.400,38.800 232.254,38.800 232.075 C 38.800 231.896,39.430 231.502,40.200 231.200 C 40.970 230.898,41.600 230.504,41.600 230.325 C 41.600 230.146,41.960 230.000,42.400 230.000 C 42.840 230.000,43.200 229.820,43.200 229.600 C 43.200 229.380,43.560 229.200,44.000 229.200 C 44.440 229.200,44.800 229.020,44.800 228.800 C 44.800 228.580,45.160 228.400,45.600 228.400 C 46.040 228.400,46.400 228.220,46.400 228.000 C 46.400 227.780,46.940 227.600,47.600 227.600 C 48.260 227.600,48.800 227.420,48.800 227.200 C 48.800 226.980,49.160 226.800,49.600 226.800 C 50.040 226.800,50.400 226.620,50.400 226.400 C 50.400 226.180,50.940 226.000,51.600 226.000 C 52.260 226.000,52.800 225.840,52.800 225.645 C 52.800 225.449,53.452 225.167,54.249 225.017 C 55.671 224.750,56.094 224.593,57.895 223.662 C 58.387 223.408,59.141 223.200,59.571 223.200 C 60.001 223.200,60.464 223.020,60.600 222.800 C 60.736 222.580,61.276 222.400,61.800 222.400 C 62.324 222.400,62.864 222.220,63.000 222.000 C 63.136 221.780,63.676 221.600,64.200 221.600 C 64.724 221.600,65.264 221.420,65.400 221.200 C 65.536 220.980,66.076 220.800,66.600 220.800 C 67.124 220.800,67.664 220.620,67.800 220.400 C 67.936 220.180,68.487 220.000,69.024 220.000 C 69.561 220.000,70.000 219.820,70.000 219.600 C 70.000 219.380,70.540 219.200,71.200 219.200 C 71.860 219.200,72.400 219.020,72.400 218.800 C 72.400 218.580,72.839 218.400,73.376 218.400 C 73.913 218.400,74.464 218.220,74.600 218.000 C 74.736 217.780,75.287 217.600,75.824 217.600 C 76.361 217.600,76.800 217.420,76.800 217.200 C 76.800 216.980,77.340 216.800,78.000 216.800 C 78.660 216.800,79.200 216.620,79.200 216.400 C 79.200 216.180,79.560 216.000,80.000 216.000 C 80.440 216.000,80.800 215.820,80.800 215.600 C 80.800 215.380,81.160 215.200,81.600 215.200 C 82.040 215.200,82.400 215.020,82.400 214.800 C 82.400 214.580,82.672 214.400,83.005 214.400 C 83.338 214.400,83.923 214.240,84.305 214.044 C 84.687 213.848,85.855 213.280,86.900 212.781 C 87.945 212.282,88.800 211.723,88.800 211.537 C 88.800 211.352,89.160 211.200,89.600 211.200 C 90.040 211.200,90.400 211.020,90.400 210.800 C 90.400 210.580,90.604 210.400,90.853 210.400 C 91.102 210.400,91.597 210.069,91.953 209.664 C 92.309 209.259,93.095 208.806,93.700 208.656 C 94.305 208.507,94.800 208.208,94.800 207.992 C 94.800 207.777,95.036 207.600,95.325 207.600 C 95.613 207.600,96.198 207.280,96.625 206.889 C 97.051 206.498,98.030 205.739,98.800 205.202 C 100.330 204.135,107.200 197.271,107.200 196.809 C 107.200 196.557,107.670 195.923,109.193 194.117 C 109.417 193.851,109.600 193.356,109.600 193.017 C 109.600 192.678,109.780 192.400,110.000 192.400 C 110.220 192.400,110.400 192.130,110.400 191.800 C 110.400 191.470,110.580 191.200,110.800 191.200 C 111.020 191.200,111.200 190.840,111.200 190.400 C 111.200 189.960,111.335 189.599,111.500 189.597 C 111.906 189.593,112.800 187.614,112.800 186.720 C 112.800 186.324,112.980 186.000,113.200 186.000 C 113.420 186.000,113.600 185.561,113.600 185.024 C 113.600 184.487,113.780 183.936,114.000 183.800 C 114.220 183.664,114.400 182.584,114.400 181.400 C 114.400 180.216,114.580 179.136,114.800 179.000 C 115.322 178.677,115.322 171.323,114.800 171.000 C 114.580 170.864,114.400 170.043,114.400 169.176 C 114.400 168.309,114.220 167.600,114.000 167.600 C 113.780 167.600,113.600 167.245,113.600 166.812 C 113.600 166.080,112.228 163.252,111.653 162.800 C 111.513 162.690,111.145 162.108,110.835 161.507 C 110.525 160.905,109.941 160.308,109.536 160.180 C 109.131 160.051,108.800 159.797,108.800 159.615 C 108.800 159.108,106.537 156.800,106.040 156.800 C 105.798 156.800,105.600 156.620,105.600 156.400 C 105.600 156.180,105.330 156.000,105.000 156.000 C 104.670 156.000,104.400 155.850,104.400 155.668 C 104.400 155.485,103.905 155.080,103.300 154.768 C 102.695 154.455,101.851 153.885,101.425 153.500 C 100.998 153.115,100.413 152.800,100.125 152.800 C 99.836 152.800,99.600 152.620,99.600 152.400 C 99.600 152.180,99.364 152.000,99.075 152.000 C 98.787 152.000,98.164 151.640,97.692 151.200 C 97.220 150.760,96.556 150.400,96.217 150.400 C 95.878 150.400,95.600 150.220,95.600 150.000 C 95.600 149.780,95.240 149.600,94.800 149.600 C 94.360 149.600,94.000 149.420,94.000 149.200 C 94.000 148.980,93.640 148.800,93.200 148.800 C 92.760 148.800,92.400 148.650,92.400 148.468 C 92.400 148.285,91.905 147.880,91.300 147.568 C 90.695 147.256,90.110 146.903,90.000 146.783 C 89.550 146.291,83.691 143.600,83.070 143.600 C 82.702 143.600,82.400 143.420,82.400 143.200 C 82.400 142.980,82.040 142.800,81.600 142.800 C 81.160 142.800,80.800 142.620,80.800 142.400 C 80.800 142.180,80.440 142.000,80.000 142.000 C 79.560 142.000,79.200 141.820,79.200 141.600 C 79.200 141.380,78.840 141.200,78.400 141.200 C 77.960 141.200,77.600 141.020,77.600 140.800 C 77.600 140.580,77.240 140.400,76.800 140.400 C 76.360 140.400,76.000 140.220,76.000 140.000 C 76.000 139.780,75.640 139.600,75.200 139.600 C 74.760 139.600,74.400 139.420,74.400 139.200 C 74.400 138.980,74.055 138.800,73.633 138.800 C 73.212 138.800,72.807 138.657,72.733 138.482 C 72.660 138.308,70.260 137.037,67.400 135.658 C 64.540 134.279,61.887 132.982,61.505 132.775 C 61.123 132.569,60.538 132.400,60.205 132.400 C 59.872 132.400,59.599 132.265,59.597 132.100 C 59.593 131.741,57.656 130.800,56.920 130.800 C 56.634 130.800,56.400 130.620,56.400 130.400 C 56.400 130.180,56.051 130.000,55.624 130.000 C 55.197 130.000,54.736 129.820,54.600 129.600 C 54.464 129.380,54.003 129.200,53.576 129.200 C 53.149 129.200,52.800 129.020,52.800 128.800 C 52.800 128.580,52.551 128.400,52.246 128.400 C 51.941 128.400,51.176 128.131,50.546 127.802 C 49.916 127.474,49.085 127.204,48.700 127.202 C 48.315 127.201,48.000 127.020,48.000 126.800 C 48.000 126.580,47.640 126.400,47.200 126.400 C 46.760 126.400,46.400 126.220,46.400 126.000 C 46.400 125.780,45.860 125.600,45.200 125.600 C 44.540 125.600,44.000 125.420,44.000 125.200 C 44.000 124.980,43.655 124.800,43.233 124.800 C 42.812 124.800,42.407 124.665,42.333 124.500 C 42.141 124.068,38.828 122.400,38.162 122.400 C 37.853 122.400,37.600 122.220,37.600 122.000 C 37.600 121.780,37.150 121.600,36.600 121.600 C 36.050 121.600,35.600 121.420,35.600 121.200 C 35.600 120.980,35.240 120.800,34.800 120.800 C 34.360 120.800,34.000 120.620,34.000 120.400 C 34.000 120.180,33.640 120.000,33.200 120.000 C 32.760 120.000,32.400 119.820,32.400 119.600 C 32.400 119.380,31.961 119.200,31.424 119.200 C 30.887 119.200,30.336 119.020,30.200 118.800 C 30.064 118.580,29.603 118.400,29.176 118.400 C 28.749 118.400,28.400 118.220,28.400 118.000 C 28.400 117.780,28.040 117.600,27.600 117.600 C 27.160 117.600,26.800 117.420,26.800 117.200 C 26.800 116.980,26.528 116.800,26.195 116.800 C 25.862 116.800,25.232 116.620,24.795 116.400 C 24.358 116.180,23.642 115.820,23.205 115.600 C 22.768 115.380,21.328 115.200,20.005 115.200 C 18.668 115.200,17.600 115.378,17.600 115.600 C 17.600 115.820,17.324 116.000,16.987 116.000 C 16.101 116.000,13.600 118.632,13.600 119.563 C 13.600 119.997,13.420 120.464,13.200 120.600 C 12.678 120.922,12.678 124.400,13.200 124.400 C 13.420 124.400,13.600 124.940,13.600 125.600 C 13.600 126.260,13.780 126.800,14.000 126.800 C 14.220 126.800,14.400 127.340,14.400 128.000 C 14.400 128.660,14.580 129.200,14.800 129.200 C 15.020 129.200,15.200 129.740,15.200 130.400 C 15.200 131.060,15.380 131.600,15.600 131.600 C 15.820 131.600,16.000 131.960,16.000 132.400 C 16.000 132.840,16.180 133.200,16.400 133.200 C 16.620 133.200,16.800 133.740,16.800 134.400 C 16.800 135.060,16.980 135.600,17.200 135.600 C 17.420 135.600,17.600 135.960,17.600 136.400 C 17.600 136.840,17.780 137.200,18.000 137.200 C 18.220 137.200,18.400 137.560,18.400 138.000 C 18.400 138.440,18.546 138.800,18.725 138.800 C 18.904 138.800,19.298 139.430,19.600 140.200 C 19.902 140.970,20.296 141.600,20.475 141.600 C 20.654 141.600,20.800 141.960,20.800 142.400 C 20.800 142.840,20.980 143.200,21.200 143.200 C 21.420 143.200,21.600 143.436,21.600 143.725 C 21.600 144.013,21.960 144.636,22.400 145.108 C 22.840 145.580,23.200 146.204,23.200 146.495 C 23.200 146.786,23.560 147.283,24.000 147.600 C 24.440 147.917,24.800 148.425,24.800 148.728 C 24.800 149.031,25.295 149.756,25.900 150.340 C 26.505 150.923,27.265 151.913,27.589 152.540 C 28.255 153.830,32.535 157.879,33.900 158.511 C 34.395 158.741,34.800 159.080,34.800 159.264 C 34.800 159.449,35.120 159.600,35.512 159.600 C 35.903 159.600,36.483 159.960,36.800 160.400 C 37.117 160.840,37.697 161.200,38.088 161.200 C 38.480 161.200,38.800 161.380,38.800 161.600 C 38.800 161.820,39.239 162.000,39.776 162.000 C 40.313 162.000,40.864 162.180,41.000 162.400 C 41.136 162.620,41.597 162.800,42.024 162.800 C 42.451 162.800,42.800 162.980,42.800 163.200 C 42.800 163.420,43.520 163.600,44.400 163.600 C 45.280 163.600,46.000 163.776,46.000 163.991 C 46.000 164.235,51.735 164.451,61.300 164.568 C 78.068 164.773,84.399 165.056,84.980 165.627 C 85.189 165.832,86.314 166.000,87.480 166.000 C 88.646 166.000,89.600 166.180,89.600 166.400 C 89.600 166.620,90.500 166.800,91.600 166.800 C 92.700 166.800,93.600 166.980,93.600 167.200 C 93.600 167.420,93.932 167.600,94.339 167.600 C 96.117 167.600,99.600 170.378,99.600 171.797 C 99.600 172.128,99.780 172.400,100.000 172.400 C 100.235 172.400,100.400 173.800,100.400 175.800 C 100.400 177.800,100.235 179.200,100.000 179.200 C 99.780 179.200,99.600 179.639,99.600 180.176 C 99.600 180.713,99.420 181.264,99.200 181.400 C 98.980 181.536,98.800 181.997,98.800 182.424 C 98.800 182.851,98.620 183.200,98.400 183.200 C 98.180 183.200,98.000 183.520,98.000 183.912 C 98.000 184.303,97.640 184.883,97.200 185.200 C 96.760 185.517,96.400 186.012,96.400 186.300 C 96.400 187.827,86.897 196.400,85.204 196.400 C 84.982 196.400,84.800 196.580,84.800 196.800 C 84.800 197.020,84.564 197.200,84.275 197.200 C 83.987 197.200,83.364 197.560,82.892 198.000 C 82.420 198.440,81.756 198.800,81.417 198.800 C 81.078 198.800,80.800 198.980,80.800 199.200 C 80.800 199.420,80.440 199.600,80.000 199.600 C 79.560 199.600,79.200 199.746,79.200 199.925 C 79.200 200.104,78.570 200.498,77.800 200.800 C 77.030 201.102,76.400 201.496,76.400 201.675 C 76.400 201.854,75.961 202.000,75.424 202.000 C 74.887 202.000,74.336 202.180,74.200 202.400 C 74.064 202.620,73.603 202.800,73.176 202.800 C 72.749 202.800,72.400 202.980,72.400 203.200 C 72.400 203.420,72.038 203.600,71.595 203.600 C 71.152 203.600,70.432 203.780,69.995 204.000 C 69.558 204.220,68.842 204.580,68.405 204.800 C 67.968 205.020,67.248 205.200,66.805 205.200 C 66.362 205.200,66.000 205.380,66.000 205.600 C 66.000 205.820,65.471 206.000,64.824 206.000 C 64.177 206.000,63.536 206.180,63.400 206.400 C 63.264 206.620,62.623 206.800,61.976 206.800 C 61.329 206.800,60.800 206.980,60.800 207.200 C 60.800 207.420,60.260 207.600,59.600 207.600 C 58.940 207.600,58.400 207.780,58.400 208.000 C 58.400 208.220,57.860 208.400,57.200 208.400 C 56.540 208.400,56.000 208.580,56.000 208.800 C 56.000 209.020,55.460 209.200,54.800 209.200 C 54.140 209.200,53.600 209.364,53.600 209.565 C 53.600 209.766,52.842 210.058,51.915 210.214 C 50.989 210.371,49.954 210.636,49.615 210.803 C 49.277 210.970,48.460 211.329,47.800 211.600 C 47.140 211.871,46.287 212.252,45.905 212.447 C 45.523 212.641,44.848 212.800,44.405 212.800 C 43.962 212.800,43.600 212.980,43.600 213.200 C 43.600 213.420,43.240 213.600,42.800 213.600 C 42.360 213.600,42.000 213.780,42.000 214.000 C 42.000 214.220,41.640 214.400,41.200 214.400 C 40.760 214.400,40.400 214.580,40.400 214.800 C 40.400 215.020,40.121 215.200,39.781 215.200 C 39.440 215.200,38.416 215.560,37.506 216.000 C 36.595 216.440,35.614 216.800,35.325 216.800 C 35.036 216.800,34.800 216.980,34.800 217.200 C 34.800 217.420,34.440 217.600,34.000 217.600 C 33.560 217.600,33.200 217.780,33.200 218.000 C 33.200 218.220,32.840 218.400,32.400 218.400 C 31.960 218.400,31.600 218.580,31.600 218.800 C 31.600 219.020,31.240 219.200,30.800 219.200 C 30.360 219.200,30.000 219.380,30.000 219.600 C 30.000 219.820,29.730 220.000,29.400 220.000 C 29.070 220.000,28.800 220.180,28.800 220.400 C 28.800 220.620,28.530 220.800,28.200 220.800 C 27.870 220.800,27.600 220.980,27.600 221.200 C 27.600 221.420,27.330 221.600,27.000 221.600 C 26.670 221.600,26.400 221.780,26.400 222.000 C 26.400 222.220,26.080 222.400,25.688 222.400 C 25.297 222.400,24.717 222.760,24.400 223.200 C 24.083 223.640,23.503 224.000,23.112 224.000 C 22.720 224.000,22.400 224.180,22.400 224.400 C 22.400 224.620,22.106 224.800,21.747 224.800 C 21.388 224.800,20.803 225.115,20.447 225.500 C 20.091 225.885,19.194 226.538,18.452 226.951 C 16.271 228.166,8.400 235.463,8.400 236.270 C 8.400 236.469,7.680 237.428,6.800 238.400 C 5.920 239.372,5.200 240.400,5.200 240.684 C 5.200 240.968,5.020 241.200,4.800 241.200 C 4.580 241.200,4.400 241.560,4.400 242.000 C 4.400 242.440,4.220 242.800,4.000 242.800 C 3.780 242.800,3.600 243.070,3.600 243.400 C 3.600 243.730,3.420 244.000,3.200 244.000 C 2.980 244.000,2.800 244.349,2.800 244.776 C 2.800 245.203,2.620 245.664,2.400 245.800 C 2.180 245.936,2.000 246.397,2.000 246.824 C 2.000 247.251,1.820 247.600,1.600 247.600 C 1.380 247.600,1.200 248.014,1.200 248.520 C 1.200 249.026,0.975 249.665,0.700 249.940 C -0.023 250.663,-0.023 271.659,0.700 271.900 C 0.975 271.992,1.200 272.581,1.200 273.210 C 1.200 273.838,1.380 274.464,1.600 274.600 C 1.820 274.736,2.000 275.287,2.000 275.824 C 2.000 276.361,2.180 276.800,2.400 276.800 C 2.620 276.800,2.800 277.160,2.800 277.600 C 2.800 278.040,2.980 278.400,3.200 278.400 C 3.420 278.400,3.600 278.760,3.600 279.200 C 3.600 279.640,3.780 280.000,4.000 280.000 C 4.220 280.000,4.400 280.360,4.400 280.800 C 4.400 281.240,4.580 281.600,4.800 281.600 C 5.020 281.600,5.200 281.960,5.200 282.400 C 5.200 282.840,5.380 283.200,5.600 283.200 C 5.820 283.200,6.000 283.520,6.000 283.912 C 6.000 284.303,6.360 284.883,6.800 285.200 C 7.240 285.517,7.600 286.025,7.600 286.328 C 7.600 286.631,8.140 287.383,8.800 288.000 C 9.460 288.617,10.000 289.275,10.000 289.462 C 10.000 289.942,15.543 295.600,16.013 295.600 C 16.225 295.600,17.141 296.320,18.048 297.200 C 18.955 298.080,19.945 298.800,20.248 298.800 C 20.552 298.800,20.800 298.980,20.800 299.200 C 20.800 299.420,21.078 299.600,21.417 299.600 C 21.756 299.600,22.420 299.960,22.892 300.400 C 23.364 300.840,23.987 301.200,24.275 301.200 C 24.564 301.200,24.800 301.380,24.800 301.600 C 24.800 301.820,25.160 302.000,25.600 302.000 C 26.040 302.000,26.400 302.180,26.400 302.400 C 26.400 302.620,26.749 302.800,27.176 302.800 C 27.603 302.800,28.064 302.980,28.200 303.200 C 28.336 303.420,28.797 303.600,29.224 303.600 C 29.651 303.600,30.000 303.780,30.000 304.000 C 30.000 304.220,30.349 304.400,30.776 304.400 C 31.203 304.400,31.664 304.580,31.800 304.800 C 31.936 305.020,32.476 305.200,33.000 305.200 C 33.524 305.200,34.051 305.359,34.171 305.554 C 34.292 305.749,34.887 306.007,35.495 306.129 C 36.103 306.251,37.410 306.553,38.400 306.800 C 41.300 307.525,43.970 308.004,47.600 308.450 C 52.050 308.997,79.328 308.719,80.070 308.119 C 80.361 307.883,81.365 307.580,82.300 307.445 C 83.235 307.310,84.765 307.092,85.700 306.959 C 86.635 306.826,87.571 306.556,87.780 306.359 C 87.989 306.162,88.743 306.000,89.456 306.000 C 90.169 306.000,90.864 305.820,91.000 305.600 C 91.136 305.380,91.867 305.200,92.624 305.200 C 93.381 305.200,94.000 305.020,94.000 304.800 C 94.000 304.580,94.392 304.400,94.872 304.400 C 95.696 304.400,97.628 303.876,99.400 303.171 C 99.840 302.996,100.920 302.624,101.800 302.345 C 102.680 302.065,103.571 301.693,103.780 301.518 C 103.989 301.343,104.574 301.200,105.080 301.200 C 105.586 301.200,106.000 301.020,106.000 300.800 C 106.000 300.580,106.450 300.400,107.000 300.400 C 107.550 300.400,108.000 300.220,108.000 300.000 C 108.000 299.780,108.360 299.600,108.800 299.600 C 109.240 299.600,109.600 299.420,109.600 299.200 C 109.600 298.980,110.140 298.800,110.800 298.800 C 111.460 298.800,112.000 298.620,112.000 298.400 C 112.000 298.180,112.360 298.000,112.800 298.000 C 113.240 298.000,113.600 297.820,113.600 297.600 C 113.600 297.380,113.960 297.200,114.400 297.200 C 114.840 297.200,115.200 297.020,115.200 296.800 C 115.200 296.580,115.560 296.400,116.000 296.400 C 116.440 296.400,116.800 296.220,116.800 296.000 C 116.800 295.780,117.149 295.600,117.576 295.600 C 118.003 295.600,118.464 295.420,118.600 295.200 C 118.736 294.980,119.197 294.800,119.624 294.800 C 120.051 294.800,120.400 294.620,120.400 294.400 C 120.400 294.180,120.760 294.000,121.200 294.000 C 121.640 294.000,122.000 293.854,122.000 293.675 C 122.000 293.496,122.630 293.102,123.400 292.800 C 124.170 292.498,124.800 292.112,124.800 291.943 C 124.800 291.774,125.430 291.518,126.200 291.374 C 126.970 291.229,127.600 290.972,127.600 290.802 C 127.600 290.632,127.915 290.393,128.300 290.271 C 128.985 290.054,131.204 288.796,131.600 288.400 C 131.996 288.004,134.215 286.746,134.900 286.529 C 135.285 286.407,135.600 286.148,135.600 285.953 C 135.600 285.759,135.836 285.600,136.125 285.600 C 136.413 285.600,137.036 285.240,137.508 284.800 C 137.980 284.360,138.644 284.000,138.983 284.000 C 139.322 284.000,139.600 283.820,139.600 283.600 C 139.600 283.380,139.830 283.200,140.112 283.200 C 140.393 283.200,140.883 282.840,141.200 282.400 C 141.517 281.960,142.009 281.600,142.292 281.600 C 142.575 281.600,143.372 281.060,144.063 280.400 C 144.754 279.740,145.522 279.200,145.771 279.200 C 146.020 279.200,146.483 278.840,146.800 278.400 C 147.117 277.960,147.631 277.600,147.941 277.600 C 148.252 277.600,148.797 277.285,149.153 276.900 C 149.509 276.515,150.430 275.854,151.200 275.430 C 151.970 275.007,152.690 274.554,152.800 274.424 C 152.910 274.294,154.142 273.291,155.537 272.194 C 156.932 271.097,158.792 269.525,159.669 268.700 C 160.547 267.875,161.426 267.200,161.622 267.200 C 161.818 267.200,162.789 266.390,163.779 265.400 C 165.748 263.431,166.000 263.297,166.000 264.218 C 166.000 265.018,167.782 266.800,168.582 266.800 C 168.922 266.800,169.200 266.980,169.200 267.200 C 169.200 267.420,169.729 267.600,170.376 267.600 C 171.023 267.600,171.664 267.780,171.800 268.000 C 171.936 268.220,173.016 268.400,174.200 268.400 C 175.384 268.400,176.464 268.580,176.600 268.800 C 176.736 269.020,177.827 269.200,179.024 269.200 C 180.221 269.200,181.200 269.380,181.200 269.600 C 181.200 269.820,182.179 270.000,183.376 270.000 C 184.573 270.000,185.664 270.180,185.800 270.400 C 185.936 270.620,187.016 270.800,188.200 270.800 C 189.384 270.800,190.464 270.980,190.600 271.200 C 190.736 271.420,191.636 271.600,192.600 271.600 C 193.564 271.600,194.464 271.780,194.600 272.000 C 194.736 272.220,195.152 272.405,195.524 272.411 C 196.415 272.425,199.600 275.361,199.600 276.169 C 199.600 276.516,199.780 276.800,200.000 276.800 C 200.229 276.800,200.400 278.000,200.400 279.600 C 200.400 281.200,200.229 282.400,200.000 282.400 C 199.780 282.400,199.600 282.749,199.600 283.176 C 199.600 283.603,199.420 284.064,199.200 284.200 C 198.980 284.336,198.800 284.887,198.800 285.424 C 198.800 285.961,198.620 286.400,198.400 286.400 C 198.180 286.400,198.000 286.749,198.000 287.176 C 198.000 287.603,197.820 288.064,197.600 288.200 C 197.380 288.336,197.200 288.887,197.200 289.424 C 197.200 289.961,197.020 290.400,196.800 290.400 C 196.580 290.400,196.400 290.672,196.400 291.005 C 196.400 291.338,196.241 291.923,196.047 292.305 C 195.852 292.687,195.471 293.540,195.200 294.200 C 194.929 294.860,194.560 295.693,194.381 296.051 C 194.201 296.409,193.932 297.356,193.782 298.155 C 193.632 298.955,193.350 299.707,193.155 299.828 C 192.664 300.131,192.706 304.400,193.200 304.400 C 193.420 304.400,193.600 304.778,193.600 305.240 C 193.600 305.702,194.213 306.693,194.963 307.443 L 196.325 308.805 283.130 308.703 L 369.936 308.600 371.003 307.600 C 372.873 305.847,374.084 300.593,372.800 299.800 C 372.580 299.664,372.400 299.275,372.400 298.936 C 372.400 297.535,366.953 293.600,365.013 293.600 C 364.676 293.600,364.400 293.420,364.400 293.200 C 364.400 292.980,364.040 292.800,363.600 292.800 C 363.160 292.800,362.800 292.620,362.800 292.400 C 362.800 292.180,362.440 292.000,362.000 292.000 C 361.560 292.000,361.200 291.820,361.200 291.600 C 361.200 291.380,360.840 291.200,360.400 291.200 C 359.960 291.200,359.600 291.020,359.600 290.800 C 359.600 290.580,359.240 290.400,358.800 290.400 C 358.360 290.400,358.000 290.220,358.000 290.000 C 358.000 289.780,357.640 289.600,357.200 289.600 C 356.760 289.600,356.399 289.465,356.399 289.300 C 356.398 289.135,355.408 288.550,354.200 288.000 C 352.992 287.450,352.002 286.865,352.001 286.700 C 352.001 286.535,351.747 286.400,351.438 286.400 C 350.772 286.400,347.459 284.732,347.267 284.300 C 347.193 284.135,346.788 284.000,346.367 284.000 C 345.945 284.000,345.600 283.820,345.600 283.600 C 345.600 283.380,345.366 283.200,345.080 283.200 C 344.344 283.200,342.407 282.259,342.403 281.900 C 342.401 281.735,342.147 281.600,341.838 281.600 C 341.172 281.600,337.859 279.932,337.667 279.500 C 337.593 279.335,337.276 279.200,336.961 279.200 C 336.647 279.200,336.077 279.035,335.695 278.834 C 333.840 277.855,331.982 277.200,331.063 277.200 C 330.504 277.200,329.936 277.020,329.800 276.800 C 329.664 276.580,328.753 276.400,327.776 276.400 C 326.799 276.400,326.000 276.220,326.000 276.000 C 326.000 275.751,323.667 275.600,319.800 275.600 C 315.933 275.600,313.600 275.751,313.600 276.000 C 313.600 276.220,312.610 276.400,311.400 276.400 C 310.190 276.400,309.200 276.558,309.200 276.752 C 309.200 276.946,307.130 277.233,304.599 277.392 C 302.069 277.550,299.898 277.841,299.776 278.040 C 299.653 278.238,298.584 278.400,297.400 278.400 C 296.216 278.400,295.136 278.580,295.000 278.800 C 294.864 279.020,293.773 279.200,292.576 279.200 C 291.379 279.200,290.400 279.380,290.400 279.600 C 290.400 279.822,289.333 280.000,288.000 280.000 C 286.667 280.000,285.600 280.178,285.600 280.400 C 285.600 280.620,284.621 280.800,283.424 280.800 C 282.227 280.800,281.136 280.980,281.000 281.200 C 280.864 281.420,279.773 281.600,278.576 281.600 C 277.379 281.600,276.400 281.780,276.400 282.000 C 276.400 282.222,275.333 282.400,274.000 282.400 C 272.667 282.400,271.600 282.578,271.600 282.800 C 271.600 283.022,270.533 283.200,269.200 283.200 C 267.867 283.200,266.800 283.378,266.800 283.600 C 266.800 283.820,265.821 284.000,264.624 284.000 C 263.427 284.000,262.336 284.180,262.200 284.400 C 262.064 284.620,260.973 284.800,259.776 284.800 C 258.579 284.800,257.600 284.980,257.600 285.200 C 257.600 285.422,256.533 285.600,255.200 285.600 C 253.867 285.600,252.800 285.778,252.800 286.000 C 252.800 286.222,251.733 286.400,250.400 286.400 C 249.067 286.400,248.000 286.578,248.000 286.800 C 248.000 287.020,247.010 287.200,245.800 287.200 C 244.590 287.200,243.600 287.380,243.600 287.600 C 243.600 287.822,242.533 288.000,241.200 288.000 C 239.867 288.000,238.800 288.178,238.800 288.400 C 238.800 288.622,237.733 288.800,236.400 288.800 C 235.067 288.800,234.000 288.978,234.000 289.200 C 234.000 289.422,232.933 289.600,231.600 289.600 C 230.267 289.600,229.200 289.778,229.200 290.000 C 229.200 290.220,228.210 290.400,227.000 290.400 C 225.790 290.400,224.800 290.580,224.800 290.800 C 224.800 291.022,223.733 291.200,222.400 291.200 C 221.067 291.200,220.000 291.378,220.000 291.600 C 220.000 291.820,219.001 292.000,217.779 292.000 L 215.558 292.000 218.079 289.916 C 219.466 288.770,220.660 287.690,220.733 287.516 C 220.807 287.342,221.042 287.200,221.257 287.200 C 221.574 287.200,224.430 285.172,225.200 284.399 C 225.310 284.289,225.895 283.944,226.500 283.632 C 227.105 283.320,227.600 282.915,227.600 282.732 C 227.600 282.550,227.960 282.400,228.400 282.400 C 228.840 282.400,229.200 282.220,229.200 282.000 C 229.200 281.780,229.520 281.600,229.912 281.600 C 230.303 281.600,230.883 281.240,231.200 280.800 C 231.517 280.360,232.097 280.000,232.488 280.000 C 232.880 280.000,233.200 279.820,233.200 279.600 C 233.200 279.380,233.560 279.200,234.000 279.200 C 234.440 279.200,234.800 279.020,234.800 278.800 C 234.800 278.580,235.160 278.400,235.600 278.400 C 236.040 278.400,236.400 278.254,236.400 278.075 C 236.400 277.896,237.030 277.502,237.800 277.200 C 238.570 276.898,239.200 276.504,239.200 276.325 C 239.200 276.146,239.470 276.000,239.800 276.000 C 240.130 276.000,240.400 275.834,240.400 275.632 C 240.400 275.429,240.985 275.137,241.700 274.982 C 242.415 274.826,243.090 274.586,243.200 274.447 C 243.372 274.230,246.619 272.476,249.497 271.046 C 249.990 270.801,250.395 270.465,250.397 270.300 C 250.399 270.135,250.678 270.000,251.017 270.000 C 251.356 270.000,252.020 269.640,252.492 269.200 C 252.964 268.760,253.587 268.400,253.875 268.400 C 254.164 268.400,254.400 268.220,254.400 268.000 C 254.400 267.780,254.636 267.600,254.925 267.600 C 255.213 267.600,255.798 267.285,256.225 266.900 C 256.651 266.515,257.540 265.931,258.200 265.603 C 258.860 265.274,259.691 264.689,260.047 264.303 C 260.403 263.916,260.916 263.600,261.186 263.600 C 261.457 263.600,262.183 263.060,262.800 262.400 C 263.417 261.740,264.137 261.200,264.400 261.200 C 264.663 261.200,265.383 260.660,266.000 260.000 C 266.617 259.340,267.364 258.800,267.660 258.800 C 268.535 258.800,281.600 245.539,281.600 244.652 C 281.600 244.390,281.960 243.917,282.400 243.600 C 282.840 243.283,283.200 242.743,283.200 242.400 C 283.200 242.057,283.560 241.517,284.000 241.200 C 284.440 240.883,284.800 240.393,284.800 240.112 C 284.800 239.830,284.980 239.600,285.200 239.600 C 285.420 239.600,285.600 239.347,285.600 239.038 C 285.600 238.553,286.152 237.280,287.650 234.305 C 287.843 233.923,288.000 233.158,288.000 232.605 C 288.000 232.052,288.180 231.600,288.400 231.600 C 288.620 231.600,288.800 231.071,288.800 230.424 C 288.800 229.777,288.980 229.136,289.200 229.000 C 289.420 228.864,289.600 227.921,289.600 226.905 C 289.600 224.812,290.345 222.400,290.992 222.400 C 291.229 222.400,291.683 222.040,292.000 221.600 C 292.317 221.160,292.897 220.800,293.288 220.800 C 293.680 220.800,294.000 220.650,294.000 220.468 C 294.000 220.285,294.495 219.881,295.100 219.570 C 295.705 219.260,296.491 218.689,296.847 218.303 C 297.203 217.916,297.671 217.600,297.888 217.600 C 298.104 217.600,298.816 217.105,299.470 216.500 C 302.293 213.888,302.746 213.880,305.200 216.400 C 306.271 217.500,307.358 218.400,307.614 218.400 C 307.870 218.400,308.583 218.940,309.200 219.600 C 309.817 220.260,310.497 220.800,310.712 220.800 C 310.926 220.800,311.323 221.066,311.593 221.392 C 314.142 224.463,318.877 223.911,327.295 219.559 C 327.677 219.362,328.262 219.200,328.595 219.200 C 328.928 219.200,329.200 219.020,329.200 218.800 C 329.200 218.580,329.560 218.400,330.000 218.400 C 330.440 218.400,330.800 218.220,330.800 218.000 C 330.800 217.780,331.160 217.600,331.600 217.600 C 332.040 217.600,332.400 217.420,332.400 217.200 C 332.400 216.980,332.760 216.800,333.200 216.800 C 333.640 216.800,334.000 216.620,334.000 216.400 C 334.000 216.180,334.360 216.000,334.800 216.000 C 335.240 216.000,335.600 215.820,335.600 215.600 C 335.600 215.380,335.949 215.200,336.376 215.200 C 336.803 215.200,337.264 215.020,337.400 214.800 C 337.536 214.580,337.997 214.400,338.424 214.400 C 338.851 214.400,339.200 214.220,339.200 214.000 C 339.200 213.780,339.434 213.600,339.720 213.600 C 340.456 213.600,342.393 212.659,342.397 212.300 C 342.399 212.135,342.940 212.000,343.600 212.000 C 344.260 212.000,344.800 211.820,344.800 211.600 C 344.800 211.380,345.160 211.200,345.600 211.200 C 346.040 211.200,346.400 211.020,346.400 210.800 C 346.400 210.580,346.940 210.400,347.600 210.400 C 348.260 210.400,348.800 210.220,348.800 210.000 C 348.800 209.780,349.160 209.600,349.600 209.600 C 350.040 209.600,350.400 209.420,350.400 209.200 C 350.400 208.980,350.760 208.800,351.200 208.800 C 351.640 208.800,352.000 208.980,352.000 209.200 C 352.000 209.420,352.540 209.600,353.200 209.600 C 353.860 209.600,354.400 209.780,354.400 210.000 C 354.400 210.220,354.760 210.400,355.200 210.400 C 355.640 210.400,356.000 210.580,356.000 210.800 C 356.000 211.020,356.540 211.200,357.200 211.200 C 357.860 211.200,358.400 211.380,358.400 211.600 C 358.400 211.820,358.760 212.000,359.200 212.000 C 359.640 212.000,360.001 212.135,360.003 212.300 C 360.007 212.659,361.944 213.600,362.680 213.600 C 362.966 213.600,363.200 213.780,363.200 214.000 C 363.200 214.235,364.600 214.400,366.600 214.400 C 368.600 214.400,370.000 214.235,370.000 214.000 C 370.000 213.780,370.294 213.600,370.653 213.600 C 371.384 213.600,373.199 211.675,373.200 210.900 C 373.200 210.625,373.362 210.400,373.560 210.400 C 373.759 210.400,374.254 209.591,374.660 208.601 C 375.067 207.612,375.535 206.802,375.700 206.801 C 375.865 206.801,376.000 206.440,376.000 206.000 C 376.000 205.560,376.180 205.200,376.400 205.200 C 376.620 205.200,376.800 204.840,376.800 204.400 C 376.800 203.960,376.980 203.600,377.200 203.600 C 377.420 203.600,377.600 203.240,377.600 202.800 C 377.600 202.360,377.780 202.000,378.000 202.000 C 378.220 202.000,378.400 201.100,378.400 200.000 C 378.400 198.900,378.220 198.000,378.000 198.000 C 377.780 198.000,377.600 197.576,377.600 197.058 C 377.600 196.456,376.769 195.248,375.300 193.714 C 374.035 192.393,372.572 190.792,372.048 190.156 C 371.524 189.520,370.460 188.333,369.684 187.518 C 367.353 185.070,367.978 184.800,375.974 184.800 C 382.096 184.800,382.720 184.734,383.508 184.000 C 383.980 183.560,384.475 183.200,384.607 183.200 C 384.908 183.200,398.800 169.267,398.800 168.965 C 398.800 168.843,399.086 168.457,399.435 168.107 C 399.949 167.594,400.045 166.734,399.935 163.614 L 399.800 159.757 396.900 156.898 C 395.305 155.325,394.000 153.889,394.000 153.705 C 394.000 153.260,390.395 149.239,387.298 146.230 C 381.302 140.405,377.275 136.388,375.600 134.560 C 373.400 132.158,367.951 127.200,367.512 127.200 C 367.336 127.200,366.628 126.660,365.937 126.000 C 365.246 125.340,364.438 124.800,364.141 124.800 C 363.843 124.800,363.600 124.620,363.600 124.400 C 363.600 124.180,363.240 124.000,362.800 124.000 C 362.360 124.000,362.000 123.820,362.000 123.600 C 362.000 123.380,361.640 123.200,361.200 123.200 C 360.760 123.200,360.400 123.020,360.400 122.800 C 360.400 122.580,359.871 122.400,359.224 122.400 C 358.577 122.400,357.936 122.220,357.800 122.000 C 357.664 121.780,356.753 121.600,355.776 121.600 C 354.799 121.600,354.000 121.420,354.000 121.200 C 354.000 120.951,351.741 120.800,348.024 120.800 C 344.471 120.800,341.947 120.962,341.800 121.200 C 341.664 121.420,340.573 121.600,339.376 121.600 C 338.179 121.600,337.200 121.780,337.200 122.000 C 337.200 122.220,336.300 122.400,335.200 122.400 C 334.100 122.400,333.200 122.580,333.200 122.800 C 333.200 123.020,332.570 123.200,331.800 123.200 C 331.030 123.200,330.400 123.387,330.400 123.616 C 330.400 123.844,330.006 123.664,329.525 123.216 C 329.043 122.767,328.413 122.400,328.125 122.400 C 327.836 122.400,327.600 122.220,327.600 122.000 C 327.600 121.780,327.240 121.600,326.800 121.600 C 326.360 121.600,326.000 121.454,326.000 121.275 C 326.000 121.096,325.370 120.702,324.600 120.400 C 323.830 120.098,323.200 119.704,323.200 119.525 C 323.200 119.346,322.840 119.200,322.400 119.200 C 321.960 119.200,321.599 119.065,321.597 118.900 C 321.595 118.735,321.190 118.402,320.697 118.160 C 318.289 116.978,316.187 115.770,316.067 115.500 C 315.993 115.335,315.588 115.200,315.167 115.200 C 314.745 115.200,314.400 115.020,314.400 114.800 C 314.400 114.580,314.040 114.400,313.600 114.400 C 313.160 114.400,312.800 114.220,312.800 114.000 C 312.800 113.780,312.617 113.600,312.393 113.600 C 312.169 113.600,310.780 112.868,309.307 111.973 C 307.834 111.078,306.128 110.246,305.515 110.123 C 304.902 110.000,304.400 109.743,304.400 109.550 C 304.400 109.358,304.130 109.200,303.800 109.200 C 303.470 109.200,303.200 109.020,303.200 108.800 C 303.200 108.580,302.930 108.400,302.600 108.400 C 302.270 108.400,302.000 108.220,302.000 108.000 C 302.000 107.780,301.640 107.600,301.200 107.600 C 300.760 107.600,300.400 107.420,300.400 107.200 C 300.400 106.980,300.040 106.800,299.600 106.800 C 299.160 106.800,298.800 106.620,298.800 106.400 C 298.800 106.180,298.440 106.000,298.000 106.000 C 297.560 106.000,297.200 105.820,297.200 105.600 C 297.200 105.380,296.840 105.200,296.400 105.200 C 295.960 105.200,295.600 105.042,295.600 104.849 C 295.600 104.655,295.060 104.273,294.400 104.000 C 293.740 103.727,293.200 103.345,293.200 103.151 C 293.200 102.958,292.840 102.800,292.400 102.800 C 291.960 102.800,291.600 102.654,291.600 102.475 C 291.600 102.296,290.970 101.902,290.200 101.600 C 289.430 101.298,288.800 100.904,288.800 100.725 C 288.800 100.546,288.440 100.400,288.000 100.400 C 287.560 100.400,287.199 100.265,287.197 100.100 C 287.195 99.935,286.790 99.602,286.297 99.360 C 283.889 98.178,281.787 96.970,281.667 96.700 C 281.593 96.535,281.188 96.400,280.767 96.400 C 280.345 96.400,280.000 96.220,280.000 96.000 C 280.000 95.780,279.640 95.600,279.200 95.600 C 278.760 95.600,278.400 95.465,278.400 95.300 C 278.400 95.135,277.232 94.460,275.805 93.800 C 274.378 93.140,273.208 92.465,273.205 92.300 C 273.202 92.135,272.851 92.000,272.424 92.000 C 271.997 92.000,271.536 91.820,271.400 91.600 C 271.263 91.379,269.463 91.200,267.376 91.200 C 265.125 91.200,263.600 91.362,263.600 91.600 M279.351 109.547 C 280.478 110.179,282.660 111.372,284.200 112.200 C 285.740 113.028,287.990 114.247,289.200 114.908 C 290.410 115.570,292.390 116.651,293.600 117.311 C 294.810 117.971,296.610 118.959,297.600 119.506 C 298.590 120.054,304.440 123.247,310.600 126.602 C 316.760 129.957,322.610 133.147,323.600 133.692 C 338.486 141.879,338.877 142.003,341.488 139.392 C 342.839 138.041,342.888 137.891,342.723 135.606 C 342.517 132.755,342.445 132.800,347.159 132.800 C 356.729 132.800,359.682 134.862,378.383 154.606 C 380.463 156.803,383.249 159.726,384.574 161.103 L 386.982 163.605 382.397 168.203 L 377.813 172.800 373.607 172.815 C 367.313 172.837,364.784 173.465,359.735 176.264 C 357.351 177.585,354.770 178.894,354.000 179.173 C 353.230 179.452,352.240 179.836,351.800 180.026 C 346.895 182.145,335.045 182.399,327.616 180.545 C 321.852 179.106,318.076 182.302,320.389 186.662 C 322.530 190.697,338.129 192.764,348.964 190.447 C 354.542 189.255,354.251 189.178,357.731 192.754 C 361.140 196.258,361.170 196.328,359.900 197.795 L 359.000 198.834 355.805 197.817 C 350.786 196.219,347.696 196.836,337.707 201.431 C 336.548 201.964,334.565 202.869,333.300 203.442 C 332.035 204.016,329.920 204.989,328.600 205.604 C 319.839 209.689,318.219 210.400,317.679 210.400 C 315.840 210.400,307.795 202.403,303.998 196.800 C 300.794 192.073,300.045 191.446,297.600 191.446 C 292.904 191.446,291.688 195.593,294.959 200.450 C 296.899 203.330,296.952 203.208,292.326 206.616 C 287.237 210.366,287.517 210.442,286.395 205.000 C 285.513 200.721,284.574 198.093,282.007 192.711 C 279.268 186.970,276.351 185.436,273.075 188.013 C 270.939 189.692,270.869 191.477,272.786 195.263 C 279.656 208.822,280.043 224.225,273.775 234.528 C 268.098 243.860,255.795 253.924,239.600 262.482 C 237.290 263.703,234.590 265.153,233.600 265.704 C 232.610 266.256,230.630 267.331,229.200 268.093 C 225.251 270.199,224.238 270.801,218.406 274.505 C 212.813 278.056,212.400 278.199,212.400 276.586 C 212.400 272.112,207.146 264.762,202.008 262.047 C 198.586 260.239,186.368 257.712,174.144 256.284 L 170.488 255.856 170.270 254.028 C 170.151 253.023,169.861 251.075,169.626 249.700 C 169.392 248.325,169.008 246.075,168.774 244.700 C 165.413 224.985,165.740 198.738,169.559 181.800 C 169.757 180.920,170.111 179.300,170.345 178.200 C 170.578 177.100,171.151 174.940,171.618 173.400 C 172.084 171.860,172.609 170.060,172.784 169.400 C 174.247 163.880,179.482 152.852,183.323 147.200 C 187.320 141.318,197.441 131.200,199.328 131.200 C 199.520 131.200,200.192 130.833,200.823 130.384 C 212.781 121.869,249.927 123.001,268.495 132.447 C 268.877 132.641,269.374 132.800,269.599 132.800 C 269.824 132.800,270.862 133.178,271.904 133.640 C 272.947 134.102,274.160 134.615,274.600 134.779 C 275.040 134.944,277.472 136.077,280.004 137.298 L 284.608 139.517 287.004 143.458 C 292.803 152.998,295.745 154.509,308.937 154.720 C 320.418 154.904,322.000 154.335,322.000 150.024 C 322.000 145.902,320.182 145.201,309.492 145.198 C 298.682 145.195,299.640 145.772,293.211 135.400 C 288.058 127.087,285.824 123.535,283.338 119.704 C 282.162 117.891,281.200 116.322,281.200 116.218 C 281.200 116.113,280.210 114.509,279.000 112.652 C 275.988 108.032,276.027 107.686,279.351 109.547 M33.100 133.255 C 34.475 133.885,36.770 134.940,38.200 135.600 C 42.073 137.388,45.303 138.871,50.200 141.113 C 52.620 142.220,55.995 143.773,57.700 144.563 C 59.405 145.353,62.124 146.612,63.742 147.360 C 66.997 148.864,67.332 149.287,66.628 151.008 L 66.146 152.187 57.373 152.255 C 48.852 152.321,47.187 152.154,44.533 150.962 C 43.023 150.285,38.928 147.053,37.800 145.649 C 37.360 145.102,36.437 144.012,35.750 143.227 C 34.448 141.741,29.795 134.166,29.162 132.501 C 28.728 131.359,29.129 131.436,33.100 133.255 M353.400 144.939 C 343.225 147.869,345.026 162.200,355.569 162.200 C 365.760 162.200,367.806 147.926,358.027 145.041 C 355.563 144.314,355.571 144.314,353.400 144.939 M325.594 289.793 C 328.329 290.521,337.240 294.811,336.960 295.265 C 336.654 295.759,283.306 295.695,283.000 295.200 C 282.864 294.980,282.910 294.800,283.101 294.800 C 283.871 294.800,310.873 290.297,314.200 289.614 C 316.871 289.066,323.236 289.166,325.594 289.793 " stroke="none" fill="#3c4c4c" fill-rule="evenodd"></path></g></svg>